# xmcd CD database file
#
# Track frame offsets:
#	157
#	20742
#	29877
#	44337
#	61492
#	79645
#	99015
#	102390
#	121002
#	134445
#	150827
#	157255
#
# Disc length: 2224 seconds
#
# Revision: 2
# Processed by: cddbd v1.5.1PL0 Copyright (c) Steve Scherf et al.
# Submitted via: CDex 1.51
#
DISCID=9608ae0c
DTITLE=Taylor, Terry Scott - A Briefing for the Ascent
DYEAR=1993
DGENRE=CCM
TTITLE0=A Briefing for the Ascent (Part 1 The Briefing)
TTITLE1=Somewhere to Elsewhere (instrumental) (Part 1 The Briefing)
TTITLE2=Beyond the Wall of Sleep (Part 2 The Preparation)
TTITLE3=The Wood Between the Worlds (Part 2 The Preparation)
TTITLE4=Changeless (Part 2 The Preparation)
TTITLE5=My Love, My Love (Part 2 The Preparation)
TTITLE6=Wars of the Heart (instrumental) (Part 3 The Battle)
TTITLE7=Capture Me (Part 3 The Battle)
TTITLE8=Where Dreams Come True (Part 3 The Battle)
TTITLE9=Long, Long, Long (Part 3 The Battle)
TTITLE10=Prelude (Part 4 Prelude)
TTITLE11=Going Home (Part 4 Prelude)
EXTD=YEAR: 1993
EXTT0=
EXTT1=
EXTT2=
EXTT3=
EXTT4=
EXTT5=
EXTT6=
EXTT7=
EXTT8=
EXTT9=
EXTT10=
EXTT11=
PLAYORDER=
